HIERARCHY
ROOT ui
{
	 OFFSET 0 0 0
	 CHANNELS 3 XPosition YPosition Z Position
	 EndSite
	 {
	 OFFSET 0 -1 0
	 }
}
ROOT li
{
	 OFFSET 0 0 0
	 CHANNELS 3 XPosition YPosition Z Position
	 EndSite
	 {
	 OFFSET 0 -1 0
	 }
}
ROOT ul
{
	 OFFSET 0 0 0
	 CHANNELS 3 XPosition YPosition Z Position
	 EndSite
	 {
	 OFFSET 0 -1 0
	 }
}
ROOT ll
{
	 OFFSET 0 0 0
	 CHANNELS 3 XPosition YPosition Z Position
	 EndSite
	 {
	 OFFSET 0 -1 0
	 }
}
ROOT tt
{
	 OFFSET 0 0 0
	 CHANNELS 3 XPosition YPosition Z Position
	 EndSite
	 {
	 OFFSET 0 -1 0
	 }
}
ROOT tb
{
	 OFFSET 0 0 0
	 CHANNELS 3 XPosition YPosition Z Position
	 EndSite
	 {
	 OFFSET 0 -1 0
	 }
}
ROOT td
{
	 OFFSET 0 0 0
	 CHANNELS 3 XPosition YPosition Z Position
	 EndSite
	 {
	 OFFSET 0 -1 0
	 }
}
ROOT v
{
	 OFFSET 0 0 0
	 CHANNELS 3 XPosition YPosition Z Position
	 EndSite
	 {
	 OFFSET 0 -1 0
	 }
}
ROOT bn
{
	 OFFSET 0 0 0
	 CHANNELS 3 XPosition YPosition Z Position
	 EndSite
	 {
	 OFFSET 0 -1 0
	 }
}
MOTION
Frames: 21
Frame Time: 0.002
0.006152809143066406	8.024920225143433E-4	0		0.344527099609375	-2.272458251953125	0		-1.0882694091796874	-0.009200910568237304	0		-0.883847900390625	-2.2787685546875	0		1.6101688232421876	-0.4125227966308594	0		3.1886259765625	0.09185104370117188	0		4.494859375	0.04058452224731445	0		5.54644580078125	0.009440638542175294	0		-0.1097032470703125	5.9293291015625	0		
0.016395679473876955	0.010859401702880859	0		0.42222665405273435	-2.28976416015625	0		-1.084166015625	-0.006018649101257325	0		-0.877711669921875	-2.27362744140625	0		1.6204305419921874	-0.401470947265625	0		3.209303955078125	0.07368283081054687	0		4.48800537109375	0.04597060775756836	0		5.5464697265625	0.008684026718139648	0		-0.1077021484375	5.9265498046875	0		
0.02131844902038574	0.005039609909057617	0		0.3864720153808594	-2.27876416015625	0		-1.084141845703125	-0.00673537015914917	0		-0.8797344970703125	-2.27630419921875	0		1.605637451171875	-0.3928966064453125	0		3.212890869140625	0.10088629913330079	0		4.5031474609375	0.050933116912841796	0		5.55065380859375	0.01586389446258545	0		-0.09342031860351563	5.9375458984375	0		
0.012352089881896972	0.00552747106552124	0		0.4004932250976562	-2.278740234375	0		-1.088209716796875	-0.011343290328979492	0		-0.8926072387695313	-2.27073388671875	0		1.6056478271484376	-0.39359494018554686	0		3.1785478515625	0.08286990356445313	0		4.494201171875	0.0524055290222168	0		5.54650537109375	0.0072342147827148436	0		-0.10958629608154297	5.92717724609375	0		
-0.060549518585205075	0.011335298538208008	0		0.371473876953125	-2.278817626953125	0		-1.088226806640625	-0.01199878692626953	0		-0.8577401123046875	-2.277093017578125	0		1.596389892578125	-0.40607672119140625	0		3.188669921875	0.08899641418457031	0		4.4941845703125	0.0517298355102539	0		5.54648876953125	0.006554717063903808	0		-0.12378012847900391	5.9168017578125	0		
0.01105323600769043	-0.00673126220703125	0		0.4160129089355469	-2.299342041015625	0		-1.08828759765625	-0.012616127967834472	0		-0.881865234375	-2.280227783203125	0		1.611425048828125	-0.4020072326660156	0		3.199305419921875	0.07314427185058593	0		4.494841796875	0.0370736198425293	0		5.546427734375	0.005911713123321533	0		-0.1105994110107422	5.9269169921875	0		
0.016237762451171874	0.007584649085998535	0		0.3572613525390625	-2.28074072265625	0		-1.0843243408203125	-0.009273364067077636	0		-0.8799509887695313	-2.27884521484375	0		1.6171851806640625	-0.4087137451171875	0		3.17877734375	0.10196745300292968	0		4.49814794921875	0.05741018676757813	0		5.5504716796875	0.013226481437683105	0		-0.10971170806884765	5.92531689453125	0		
0.01605582618713379	0.007047854900360108	0		0.40214105224609376	-2.278185546875	0		-1.0885859375	-0.01372414779663086	0		-0.8821825561523438	-2.281337646484375	0		1.6111234130859375	-0.4031378173828125	0		3.20486572265625	0.06488105010986328	0		4.493826171875	0.04993619537353516	0		5.5461298828125	0.004748206138610839	0		-0.09465005493164062	5.9354765625	0		
-0.06116767883300781	0.009106049537658692	0		0.372877685546875	-2.278094970703125	0		-1.0888453369140625	-0.014210966110229492	0		-0.8563563842773437	-2.277349609375	0		1.6019246826171876	-0.40045590209960935	0		3.208149658203125	0.09130957794189454	0		4.49840478515625	0.04132591247558594	0		5.54107275390625	0.014330973625183105	0		-0.12430020904541016	5.91457373046875	0		
0.005230052947998047	-0.004686791896820069	0		0.3974147338867188	-2.28404541015625	0		-1.0932520751953125	-0.01757149124145508	0		-0.8956856079101563	-2.27600732421875	0		1.5954158935546876	-0.4087870788574219	0		3.1935439453125	0.07813336181640625	0		4.5042177734375	0.04873701477050781	0		5.5497236328125	0.013678666114807128	0		-0.1114022216796875	5.92486376953125	0		
-0.06909450531005859	0.001399852991104126	0		0.36378982543945315	-2.292783447265625	0		-1.0896328125	-0.015050461769104004	0		-0.8852991943359375	-2.2846259765625	0		1.594973876953125	-0.40919674682617185	0		3.187266357421875	0.08583584594726562	0		4.49277978515625	0.04853602981567383	0		5.5450830078125	0.003334115982055664	0		-0.11083664703369141	5.92344140625	0		
0.01937602424621582	2.4686099588871004E-4	0		0.394282470703125	-2.291770263671875	0		-1.0820250244140626	-0.008568671226501465	0		-0.91869287109375	-2.277319091796875	0		1.6154161376953124	-0.4109866943359375	0		3.20328857421875	0.06312394332885742	0		4.49708642578125	0.040057430267333986	0		5.5445517578125	0.0029501121044158934	0		-0.09514469146728516	5.93275732421875	0		
-0.06310060119628906	0.007578057765960693	0		0.40193948364257814	-2.27825537109375	0		-1.0907786865234375	-0.015721316337585448	0		-0.8562685546875	-2.275905029296875	0		1.60892236328125	-0.40519314575195314	0		3.19534130859375	0.09594586944580077	0		4.49577490234375	0.05473674774169922	0		5.54809765625	0.010525881767272949	0		-0.0957348861694336	5.93243798828125	0		
0.018079931259155274	-3.5400700569152834E-4	0		0.39714898681640626	-2.28345654296875	0		-1.097358642578125	-0.01087838840484619	0		-0.895951171875	-2.27539697265625	0		1.59622119140625	-0.40623834228515626	0		3.19127734375	0.07671697235107422	0		4.490953125	0.047520633697509765	0		5.54325537109375	0.002305984020233154	0		-0.11259260559082031	5.92248193359375	0		
0.002231781005859375	-0.006295897960662842	0		0.3943705749511719	-2.28566259765625	0		-1.0962506103515626	-0.019158483505249024	0		-0.8258451538085938	-2.284068603515625	0		1.595489501953125	-0.40648947143554687	0		3.1847099609375	0.08457938385009765	0		4.4861025390625	0.04134088516235351	0		5.53772802734375	0.012139340400695801	0		-0.11330148315429688	5.92223681640625	0		
0.007614198207855224	3.692300021648407E-4	0		0.3505936279296875	-2.28600927734375	0		-1.092948486328125	-0.016448354721069335	0		-0.88661865234375	-2.284068359375	0		1.6036683349609375	-0.4098883972167969	0		3.189790283203125	0.07623634338378907	0		4.48946533203125	0.0470307388305664	0		5.541767578125	0.0018085789680480956	0		-0.12823681640625	5.91230908203125	0		
0.010929536819458009	0.0041056938171386715	0		0.41458615112304686	-2.2985009765625	0		-1.0937130126953125	-0.01662658500671387	0		-0.88739111328125	-2.284247314453125	0		1.600124755859375	-0.39901779174804686	0		3.173472900390625	0.09836128234863281	0		4.488701171875	0.04683301162719727	0		5.54100341796875	0.0016071779727935792	0		-0.09956314849853516	5.93253857421875	0		
0.010176162719726562	0.003951657056808472	0		0.3780539245605469	-2.2869326171875	0		-1.0944664306640626	-0.01677677536010742	0		-0.896948974609375	-2.274218994140625	0		1.6052276611328125	-0.40629693603515626	0		3.193130615234375	0.06877864837646484	0		4.4879482421875	0.04666338348388672	0		5.53961328125	0.019450393676757813	0		-0.11649428558349609	5.92270947265625	0		
0.009449728965759277	0.003822659969329834	0		0.3933767395019531	-2.28438623046875	0		-1.0951929931640625	-0.01690192222595215	0		-0.8997232666015625	-2.276303955078125	0		1.5924820556640624	-0.40718927001953126	0		3.201805908203125	0.08845296478271485	0		4.4872216796875	0.04651877593994141	0		5.549521484375	0.001083920955657959	0		-0.116220458984375	5.92156103515625	0		
0.006521945953369141	-0.008242265701293945	0		0.3636885070800781	-2.283910400390625	0		-1.107675048828125	-0.006765725135803223	0		-0.9044972534179687	-2.280326904296875	0		1.58871435546875	-0.41124118041992186	0		3.18686083984375	0.07561911773681641	0		4.49753369140625	0.0461734619140625	0		5.54883544921875	9.567800164222717E-4	0		-0.11786544799804688	5.9224736328125	0		
0.008967323303222656	-0.004393874168395996	0		0.40971337890625	-2.30094677734375	0		-1.096513916015625	-0.017092144012451172	0		-0.8902237548828125	-2.2847158203125	0		1.5942384033203125	-0.403459716796875	0		3.180388916015625	0.0836370849609375	0		4.4859013671875	0.0462893180847168	0		5.53820263671875	0.0010487580299377442	0		-0.1174996566772461	5.92136376953125	0		
